<?xml version="1.0" encoding="UTF-8"?>
<svg version="1.1" xmlns="http://www.w3.org/2000/svg" width="500" height="500">
<path d="M0 0 C23.21000242 -0.07023561 46.41998718 -0.12305928 69.6300745 -0.15543652 C80.40812302 -0.17087273 91.18610532 -0.19189987 101.96411133 -0.22631836 C111.36365491 -0.25632043 120.76315051 -0.27559857 130.16274065 -0.28226548 C135.13481525 -0.2861595 140.10675263 -0.29524259 145.07878304 -0.31719017 C149.7696142 -0.33772646 154.4602531 -0.34379957 159.15112495 -0.33932304 C160.86220855 -0.34014065 162.57329934 -0.3460033 164.28434372 -0.35761642 C178.08459423 -0.44659571 190.85571078 1.19667845 204 5.6875 C204.74854248 5.94241211 205.49708496 6.19732422 206.26831055 6.45996094 C233.76937863 16.20835437 255.49320751 36.88587224 268.25195312 62.91943359 C281.41669627 90.88449902 282.85033937 122.01183713 272.56640625 151.14453125 C261.69814558 178.88399577 240.28502745 201.68235672 213.02441406 213.88427734 C195.46849839 221.2509606 178.32664293 223.12278939 159.42408943 223.16866493 C157.03772404 223.17596458 154.65154892 223.19172391 152.26524353 223.21000671 C145.48943595 223.26187082 138.71374628 223.31041276 131.93774414 223.32592773 C127.76746481 223.33609309 123.59768924 223.36561386 119.4276104 223.40724754 C117.85584789 223.41942357 116.28401394 223.42470378 114.71220589 223.42244911 C101.14083377 223.40776154 88.83225687 225.16913155 78 234 C77.31292969 234.55171875 76.62585938 235.1034375 75.91796875 235.671875 C67.7686232 242.9642148 62.18332555 254.10953824 61 265 C61.19704569 268.29386341 61.61967409 271.51089626 62.0760498 274.77876282 C65.03305529 296.37521269 68.10801266 322.27909229 54.3671875 340.72802734 C39.89264769 359.10182621 21.24564168 374.51073425 3 389 C1 387 1 387 0.75834846 384.92730618 C0.76237112 384.06630841 0.76639378 383.20531065 0.77053833 382.31822205 C0.77042252 381.33034195 0.7703067 380.34246185 0.77018738 379.324646 C0.78044449 378.23645569 0.7907016 377.14826538 0.80126953 376.02709961 C0.80430588 374.88368607 0.80734222 373.74027252 0.81047058 372.56221008 C0.82381576 368.75878562 0.85250257 364.95566854 0.8828125 361.15234375 C0.89883391 358.5055002 0.91452552 355.85865463 0.92990112 353.21180725 C0.96417002 347.64560162 1.0082563 342.07952676 1.05664062 336.51342773 C1.11196458 330.11991257 1.14566485 323.72654178 1.16874802 317.33283609 C1.18959006 311.82246429 1.22573066 306.31232402 1.2732724 300.80211836 C1.30134764 297.52129015 1.32192464 294.24073595 1.33075333 290.95979118 C1.44833307 254.72262838 11.67130026 224.39294622 37.3125 198.25 C43.70000931 191.90587755 50.33042806 186.75106226 58 182 C59.39025391 181.08347656 59.39025391 181.08347656 60.80859375 180.1484375 C66.60805442 176.49662731 72.61946347 173.7580431 79 171.3125 C79.69174316 171.03905762 80.38348633 170.76561523 81.09619141 170.48388672 C83.70611886 169.53226082 86.32433711 168.74979906 89 168 C89.61552734 167.82701385 90.23105469 167.65402771 90.86523438 167.47579956 C106.96344525 163.1533707 123.27789257 163.43018135 139.80535889 163.43664551 C145.61989648 163.43890942 151.43403132 163.42422468 157.24841309 163.38105965 C159.24664222 163.37141173 161.24493416 163.38026831 163.24316406 163.38975525 C178.89414697 163.3025857 193.39778901 159.26670882 204.96875 148.26171875 C215.04096713 137.04669237 220.53198661 122.74462741 219.84765625 107.63671875 C218.00780847 93.00554832 211.39462898 80.03176925 200 70.5625 C188.95435043 62.33701628 177.45421677 59.18609819 163.71020508 60.47216797 C161.50910815 60.63811486 159.30781803 60.80151386 157.10636902 60.96272278 C155.37791276 61.09600951 155.37791276 61.09600951 153.61453819 61.23198891 C62.08062861 67.85700935 62.08062861 67.85700935 36.51953125 46.32421875 C30.94493322 41.45389869 25.93976497 36.17768887 21.125 30.5625 C20.54361393 29.88562889 19.96222786 29.20875778 19.36322403 28.51137543 C0 5.68849266 0 5.68849266 0 0 Z " fill="#C0FE72" transform="translate(106,44)"/>
<path d="M0 0 C58.74 0 117.48 0 178 0 C178 0.33 178 0.66 178 1 C120.25 1 62.5 1 3 1 C5.9625314 4.99307717 5.9625314 4.99307717 10 7 C9.67 8.32 9.34 9.64 9 11 C7.49403892 9.54782324 5.99537896 8.08807139 4.5 6.625 C3.6646875 5.81289063 2.829375 5.00078125 1.96875 4.1640625 C0 2 0 2 0 0 Z " fill="#C6EF8A" transform="translate(106,44)"/>
<path d="M0 0 C2.31 0.66 4.62 1.32 7 2 C7 3.32 7 4.64 7 6 C7.804375 6.2475 8.60875 6.495 9.4375 6.75 C10.283125 7.1625 11.12875 7.575 12 8 C12.33 9.32 12.66 10.64 13 12 C51.94 11.67 90.88 11.34 131 11 C131.33 11.99 131.66 12.98 132 14 C116.56116056 14.15016689 101.12308944 14.23092971 85.68357468 14.23059464 C78.51339619 14.23203166 71.34460362 14.2556 64.17480469 14.33251953 C57.92048751 14.39956 51.66766462 14.42380235 45.41301656 14.39809489 C42.10474241 14.38595427 38.80022916 14.40064378 35.49227142 14.4539566 C12.65151324 14.79963439 12.65151324 14.79963439 5.85313797 8.65874863 C0 2.37173457 0 2.37173457 0 0 Z " fill="#CBEF98" transform="translate(151,90)"/>
<path d="M0 0 C0.33 0 0.66 0 1 0 C1.17148202 9.16348138 1.27114248 18.32425775 1.28240681 27.4893446 C1.28982635 31.74670662 1.32076567 36.00103357 1.40795898 40.25756836 C1.49141647 44.37600371 1.50982227 48.49033257 1.48558617 52.60949135 C1.48736036 54.17032295 1.5114816 55.73131477 1.55968666 57.29140282 C1.76684394 64.41888099 1.77753954 70.29067071 -2.99404907 75.94741821 C-6.1163768 79.23785625 -9.46782181 82.15873771 -13 85 C-13 80.46549247 -11.6218167 78.65290754 -8.5 75.375 C-7.2625 74.199375 -7.2625 74.199375 -6 73 C-5.01 72.01 -5.01 72.01 -4 71 C-3.01 71 -2.02 71 -1 71 C-1.00222061 70.15475266 -1.00444122 69.30950531 -1.00672913 68.43864441 C-1.02675516 60.47814639 -1.04198597 52.51765681 -1.05181217 44.5571394 C-1.05703371 40.46443292 -1.06411817 36.37174724 -1.07543945 32.27905273 C-1.08629418 28.33036914 -1.09228234 24.38170556 -1.09487724 20.43300819 C-1.09672682 18.92550656 -1.1003385 17.41800605 -1.10573006 15.91051292 C-1.11297477 13.80123897 -1.11398949 11.69204804 -1.11352539 9.58276367 C-1.115746 8.38141281 -1.11796661 7.18006195 -1.12025452 5.94230652 C-1 3 -1 3 0 0 Z " fill="#C4F386" transform="translate(166,304)"/>
<path d="M0 0 C0.33 0.66 0.66 1.32 1 2 C0.38125 2.0825 -0.2375 2.165 -0.875 2.25 C-3.18346804 2.78810733 -3.18346804 2.78810733 -4 5 C-4.33 5.66 -4.66 6.32 -5 7 C-6.33333333 7.33333333 -7.66666667 7.66666667 -9 8 C-10.28436734 9.9837767 -10.28436734 9.9837767 -11 12 C-12.32 12 -13.64 12 -15 12 C-15.0825 12.5775 -15.165 13.155 -15.25 13.75 C-16.225982 16.67794601 -17.63511223 18.05244537 -20 20 C-20.99 20 -21.98 20 -23 20 C-23.33 20.66 -23.66 21.32 -24 22 C-24 18.12835404 -23.00377751 17.57110925 -20.3125 14.875 C-14.40877742 9.1404924 -7.39684512 3.69842256 0 0 Z " fill="#C8F587" transform="translate(166,225)"/>
<path d="M0 0 C3.31467895 1.53406629 5.03944771 2.86311633 7 6 C7 6.66 7 7.32 7 8 C7.66 8 8.32 8 9 8 C9.47497265 9.6963309 9.94953094 11.39277904 10.421875 13.08984375 C11.01222512 15.15793417 11.01222512 15.15793417 12.125 17.6875 C13.46320857 22.75357532 13.15174668 27.79003063 13 33 C12.67 33 12.34 33 12 33 C11.91363281 32.20078125 11.82726562 31.4015625 11.73828125 30.578125 C10.26122973 19.03273147 6.47866858 9.62545046 0 0 Z " fill="#C8F586" transform="translate(314,122)"/>
<path d="M0 0 C0.99 0.33 1.98 0.66 3 1 C3.309375 2.134375 3.61875 3.26875 3.9375 4.4375 C4.58500442 8.0640504 4.58500442 8.0640504 7.0625 9.25 C7.701875 9.4975 8.34125 9.745 9 10 C9.33 10.99 9.66 11.98 10 13 C11.49985609 14.66710346 11.49985609 14.66710346 13 16 C10 16 10 16 8.37426758 14.71484375 C7.80345459 14.12832031 7.2326416 13.54179688 6.64453125 12.9375 C6.02255859 12.30585937 5.40058594 11.67421875 4.75976562 11.0234375 C4.11716797 10.35570313 3.47457031 9.68796875 2.8125 9 C2.15830078 8.33226563 1.50410156 7.66453125 0.83007812 6.9765625 C-0.78686135 5.32421559 -2.39640491 3.66528399 -4 2 C-3.34 1.67 -2.68 1.34 -2 1 C-1.34 1.33 -0.68 1.66 0 2 C0 1.34 0 0.68 0 0 Z " fill="#C4F87E" transform="translate(139,73)"/>
<path d="M0 0 C0.66 0 1.32 0 2 0 C1.42656355 6.19311362 0.35902388 12.20966865 -2 18 C-2.66 18.33 -3.32 18.66 -4 19 C-5.125 15.25 -5.125 15.25 -4 13 C-3.34 13 -2.68 13 -2 13 C-2.226875 12.154375 -2.45375 11.30875 -2.6875 10.4375 C-3.09143364 5.99422997 -1.97302401 3.94604801 0 0 Z " fill="#C8F584" transform="translate(381,176)"/>
<path d="M0 0 C2.31 0.66 4.62 1.32 7 2 C7 3.32 7 4.64 7 6 C7.804375 6.268125 8.60875 6.53625 9.4375 6.8125 C10.283125 7.204375 11.12875 7.59625 12 8 C12.33 8.99 12.66 9.98 13 11 C8.91918237 10.47585829 7.04739336 8.38881144 4.25 5.5 C3.45078125 4.6853125 2.6515625 3.870625 1.828125 3.03125 C0 1 0 1 0 0 Z " fill="#C7F686" transform="translate(151,90)"/>
<path d="M0 0 C1 3 1 3 -0.65234375 6.57421875 C-1.40387723 7.95092168 -2.1660567 9.32185409 -2.9375 10.6875 C-3.51661133 11.7403418 -3.51661133 11.7403418 -4.10742188 12.81445312 C-5.06261773 14.54795672 -6.03015386 16.27465009 -7 18 C-8.39195915 13.82412255 -6.82323219 11.86525224 -5 8 C-4.34 8 -3.68 8 -3 8 C-3 6.68 -3 5.36 -3 4 C-2.34 4 -1.68 4 -1 4 C-0.67 2.68 -0.34 1.36 0 0 Z " fill="#C5F486" transform="translate(376,196)"/>
<path d="M0 0 C0.99 0.33 1.98 0.66 3 1 C2.01 3.97 1.02 6.94 0 10 C-0.66 10 -1.32 10 -2 10 C-2.6875 7.25 -2.6875 7.25 -3 4 C-1.5625 1.625 -1.5625 1.625 0 0 Z " fill="#CBF88A" transform="translate(169,290)"/>
<path d="M0 0 C1.32 0 2.64 0 4 0 C2.6062718 4.43458973 0.39417765 6.87378374 -3 10 C-3 7.69 -3 5.38 -3 3 C-2.01 3 -1.02 3 0 3 C0 2.01 0 1.02 0 0 Z " fill="#CAF787" transform="translate(364,214)"/>
<path d="M0 0 C1.1446875 0.2784375 1.1446875 0.2784375 2.3125 0.5625 C5.08967375 1.22819173 5.08967375 1.22819173 8 0 C7.7525 0.7425 7.505 1.485 7.25 2.25 C7.1675 3.1575 7.085 4.065 7 5 C8.83358335 7.33454661 8.83358335 7.33454661 11 9 C8 9 8 9 5.95703125 7.28515625 C5.24933594 6.55167969 4.54164063 5.81820312 3.8125 5.0625 C3.09707031 4.33160156 2.38164063 3.60070312 1.64453125 2.84765625 C0 1 0 1 0 0 Z " fill="#C8F587" transform="translate(125,64)"/>
<path d="M0 0 C-2.64 2.64 -5.28 5.28 -8 8 C-8.66 7.34 -9.32 6.68 -10 6 C-9.67 5.34 -9.34 4.68 -9 4 C-8.34 4 -7.68 4 -7 4 C-6.67 2.68 -6.34 1.36 -6 0 C-2.25 -1.125 -2.25 -1.125 0 0 Z " fill="#C8F58B" transform="translate(117,425)"/>
<path d="M0 0 C1.32 0.33 2.64 0.66 4 1 C1.03 3.97 -1.94 6.94 -5 10 C-5.66 9.01 -6.32 8.02 -7 7 C-6.38125 6.938125 -5.7625 6.87625 -5.125 6.8125 C-2.73182415 6.17775641 -2.73182415 6.17775641 -1.8125 3.5 C-1.544375 2.675 -1.27625 1.85 -1 1 C-0.67 0.67 -0.34 0.34 0 0 Z " fill="#C5F486" transform="translate(128,409)"/>
<path d="M0 0 C1.4540625 0.0309375 1.4540625 0.0309375 2.9375 0.0625 C0.23186762 2.76813238 -2.33393191 3.20201149 -6 4.25 C-7.24652344 4.61480469 -8.49304688 4.97960937 -9.77734375 5.35546875 C-13.0625 6.0625 -13.0625 6.0625 -16.0625 5.0625 C-15.20785156 4.78535156 -14.35320312 4.50820313 -13.47265625 4.22265625 C-12.36792969 3.86042969 -11.26320313 3.49820312 -10.125 3.125 C-9.02285156 2.76535156 -7.92070312 2.40570313 -6.78515625 2.03515625 C-1.15429416 0.02355702 -1.15429416 0.02355702 0 0 Z " fill="#CFF599" transform="translate(310.0625,258.9375)"/>
<path d="M0 0 C1.22853597 4.91414388 0.38965954 6.63269119 -2 11 C-3.32 11.33 -4.64 11.66 -6 12 C-4.02 8.04 -2.04 4.08 0 0 Z " fill="#C9F787" transform="translate(124,267)"/>
<path d="M0 0 C0.33 0.66 0.66 1.32 1 2 C0.01 3.485 0.01 3.485 -1 5 C-2.65 4.67 -4.3 4.34 -6 4 C-6 4.66 -6 5.32 -6 6 C-8.31 6 -10.62 6 -13 6 C-10.25906335 4.1727089 -7.86174676 3.06301822 -4.8125 1.875 C-3.91144531 1.52179688 -3.01039063 1.16859375 -2.08203125 0.8046875 C-1.39496094 0.53914062 -0.70789063 0.27359375 0 0 Z " fill="#C9F487" transform="translate(299,201)"/>
<path d="M0 0 C0.66 0.66 1.32 1.32 2 2 C0.8572081 3.16964602 -0.28931715 4.33564556 -1.4375 5.5 C-2.07558594 6.1496875 -2.71367187 6.799375 -3.37109375 7.46875 C-5 9 -5 9 -6 9 C-6.375 6.75 -6.375 6.75 -6 4 C-3 1.6875 -3 1.6875 0 0 Z " fill="#CAF787" transform="translate(358,225)"/>
<path d="M0 0 C1.41702513 0.14230808 2.8336096 0.28900746 4.25 0.4375 C5.43335938 0.55931641 5.43335938 0.55931641 6.640625 0.68359375 C8.82364639 0.97634993 10.8773182 1.42064419 13 2 C13 2.66 13 3.32 13 4 C13.66 4 14.32 4 15 4 C15 4.66 15 5.32 15 6 C10 4.33333333 5 2.66666667 0 1 C0 0.67 0 0.34 0 0 Z " fill="#C9F589" transform="translate(286,104)"/>
<path d="M0 0 C1.32 0.33 2.64 0.66 4 1 C1.36 3.64 -1.28 6.28 -4 9 C-4.33 7.68 -4.66 6.36 -5 5 C-2.8125 2.1875 -2.8125 2.1875 0 0 Z " fill="#C6F487" transform="translate(144,393)"/>
<path d="M0 0 C0.33 0.66 0.66 1.32 1 2 C-2.26613695 3.91302307 -4.99445248 4.35674661 -8.75 4.625 C-9.73484375 4.69976562 -10.7196875 4.77453125 -11.734375 4.8515625 C-12.48203125 4.90054688 -13.2296875 4.94953125 -14 5 C-10.98509443 2.99006295 -8.7850073 2.27376659 -5.3125 1.375 C-3.82169922 0.98441406 -3.82169922 0.98441406 -2.30078125 0.5859375 C-1.54152344 0.39257812 -0.78226563 0.19921875 0 0 Z " fill="#D2F58F" transform="translate(203,210)"/>
<path d="M0 0 C5.68280467 1.48247078 5.68280467 1.48247078 7.1875 3.9375 C7.455625 4.618125 7.72375 5.29875 8 6 C9.5412312 7.70921589 9.5412312 7.70921589 11 9 C8 9 8 9 5.95703125 7.28515625 C5.24933594 6.55167969 4.54164063 5.81820312 3.8125 5.0625 C3.09707031 4.33160156 2.38164062 3.60070312 1.64453125 2.84765625 C0 1 0 1 0 0 Z " fill="#C9F48B" transform="translate(141,80)"/>
<path d="M0 0 C-3.63 1.98 -7.26 3.96 -11 6 C-11.33 5.01 -11.66 4.02 -12 3 C-10.68 3 -9.36 3 -8 3 C-8 2.34 -8 1.68 -8 1 C-4.59449725 -1.06762667 -4.18836538 -1.04709135 0 0 Z " fill="#CDF68F" transform="translate(337,248)"/>
<path d="M0 0 C1.31538327 4.15771494 0.34433068 6.8879297 -1 11 C-1.66 11 -2.32 11 -3 11 C-3.33 11.99 -3.66 12.98 -4 14 C-4.33 13.34 -4.66 12.68 -5 12 C-4.26821134 9.92803369 -3.44100997 7.8891448 -2.5625 5.875 C-2.08941406 4.77929688 -1.61632812 3.68359375 -1.12890625 2.5546875 C-0.75636719 1.71164063 -0.38382812 0.86859375 0 0 Z " fill="#CBF296" transform="translate(324,169)"/>
<path d="M0 0 C3.31467895 1.53406629 5.03944771 2.86311633 7 6 C7 6.66 7 7.32 7 8 C7.66 8 8.32 8 9 8 C8.67 9.32 8.34 10.64 8 12 C5.00027651 8.21087559 2.52489191 4.11168168 0 0 Z " fill="#D0F49D" transform="translate(314,122)"/>
<path d="M0 0 C0.82638376 2.89234315 1 4.88742431 1 8 C0.01 8.495 0.01 8.495 -1 9 C-2.13350534 11.01669827 -2.13350534 11.01669827 -3 13 C-4 11 -4 11 -3.22265625 8.3984375 C-2.83980469 7.40070313 -2.45695312 6.40296875 -2.0625 5.375 C-1.68222656 4.37210937 -1.30195312 3.36921875 -0.91015625 2.3359375 C-0.60980469 1.56507813 -0.30945313 0.79421875 0 0 Z " fill="#C9F48A" transform="translate(117,280)"/>
<path d="M0 0 C0.33 0.66 0.66 1.32 1 2 C-0.70135776 5.23257974 -2.76039553 8.12050853 -5 11 C-5.66 10.67 -6.32 10.34 -7 10 C-3.535 5.05 -3.535 5.05 0 0 Z " fill="#CAF28C" transform="translate(132,255)"/>
<path d="M0 0 C0.66 0 1.32 0 2 0 C2.33 1.32 2.66 2.64 3 4 C-0.3 4.66 -3.6 5.32 -7 6 C-6.21625 5.38125 -5.4325 4.7625 -4.625 4.125 C-2.03162353 2.10141339 -2.03162353 2.10141339 0 0 Z " fill="#CBF68B" transform="translate(307,195)"/>
<path d="M0 0 C-3.465 2.97 -3.465 2.97 -7 6 C-6.75 3.625 -6.75 3.625 -6 1 C-2.69333333 -1.34666667 -2.69333333 -1.34666667 0 0 Z " fill="#CAF591" transform="translate(352,235)"/>
<path d="M0 0 C1.98 1.65 3.96 3.3 6 5 C5.34 5.66 4.68 6.32 4 7 C3.01 6.67 2.02 6.34 1 6 C0.67 4.02 0.34 2.04 0 0 Z " fill="#C4F681" transform="translate(345,70)"/>
<path d="M0 0 C2.15377564 2.62198774 3.40072174 4.64404172 4 8 C3.34 8 2.68 8 2 8 C2 7.34 2 6.68 2 6 C1.01 6 0.02 6 -1 6 C-0.67 4.02 -0.34 2.04 0 0 Z " fill="#C4F67C" transform="translate(371,102)"/>
<path d="M0 0 C0.99 0.33 1.98 0.66 3 1 C0.03 3.475 0.03 3.475 -3 6 C-3.33 4.68 -3.66 3.36 -4 2 C-3.34 1.67 -2.68 1.34 -2 1 C-1.34 1.33 -0.68 1.66 0 2 C0 1.34 0 0.68 0 0 Z " fill="#CBF582" transform="translate(341,241)"/>
<path d="M0 0 C0 0.66 0 1.32 0 2 C-2.5 3.625 -2.5 3.625 -5 5 C-5.99 4.01 -6.98 3.02 -8 2 C-5.09399739 0.74335022 -3.20395416 0 0 0 Z " fill="#CAF789" transform="translate(184,217)"/>
<path d="M0 0 C1.9375 0.0625 1.9375 0.0625 4 1 C5.25 4.0625 5.25 4.0625 6 7 C2.63279613 5.60667426 1.0140476 4.0210714 -1 1 C-0.67 0.67 -0.34 0.34 0 0 Z " fill="#C6F680" transform="translate(310,115)"/>
</svg>
